<?xml version="1.0" standalone="no"?>
<!DOCTYPE svg PUBLIC "-//W3C//DTD SVG 20010904//EN"
 "http://www.w3.org/TR/2001/REC-SVG-20010904/DTD/svg10.dtd">
<svg version="1.0" xmlns="http://www.w3.org/2000/svg"
 width="300.000000pt" height="300.000000pt" viewBox="0 0 300.000000 300.000000"
 preserveAspectRatio="xMidYMid meet">
<metadata>
Created by potrace 1.10, written by Peter Selinger 2001-2011
</metadata>
<g transform="translate(0.000000,300.000000) scale(0.100000,-0.100000)"
fill="#000000" stroke="none">
<path d="M975 2256 c-11 -7 -48 -28 -82 -46 -35 -17 -63 -34 -63 -37 0 -3 41
-4 90 -1 88 4 90 4 90 -18 0 -34 -19 -562 -25 -695 l-5 -116 88 2 87 1 8 314
c4 173 10 362 13 419 l6 104 67 -7 c134 -12 225 -56 261 -126 37 -72 21 -229
-28 -283 -16 -18 -16 -20 6 -38 23 -18 24 -18 63 2 100 50 169 159 169 267 0
134 -77 220 -230 256 -89 21 -486 23 -515 2z m174 -36 c22 0 23 -1 8 -24 -19
-29 -24 -101 -32 -486 -4 -151 -9 -285 -12 -297 -4 -19 -12 -23 -44 -23 l-39
0 0 118 c0 64 5 237 11 385 10 261 10 268 -10 296 -11 15 -17 32 -13 36 4 4
30 4 57 1 28 -3 61 -6 74 -6z m367 -15 c59 -17 125 -70 148 -119 39 -82 6
-209 -72 -277 -40 -36 -48 -29 -33 28 15 54 14 168 -3 207 -32 76 -123 143
-218 161 -21 4 -38 12 -38 18 0 14 151 2 216 -18z"/>
<path d="M2489 1645 c-65 -52 -80 -69 -104 -125 -15 -36 -41 -89 -56 -117 -16
-29 -29 -55 -29 -58 0 -3 20 -5 43 -5 38 0 46 4 57 28 l14 27 7 -50 c3 -27 12
-64 18 -81 10 -26 9 -38 -3 -68 -13 -30 -14 -62 -6 -208 17 -305 16 -399 -3
-435 l-18 -33 38 0 c21 0 71 9 112 20 111 31 239 101 143 79 -20 -5 -59 -9
-86 -9 -42 0 -47 2 -40 18 10 19 9 212 -3 737 l-8 341 -76 -61z m46 -367 c4
-178 9 -399 11 -493 1 -93 5 -177 9 -186 4 -12 -1 -18 -17 -23 -57 -15 -54
-27 -63 252 -10 310 -10 315 0 375 6 36 3 63 -10 110 -21 72 -42 100 -68 93
-21 -5 -19 6 19 89 24 52 87 120 103 111 4 -3 11 -150 16 -328z"/>
<path d="M1443 1641 l-52 -59 -6 -83 c-3 -46 -8 -100 -10 -119 l-4 -35 140 -2
140 -2 -71 135 c-43 80 -74 153 -78 180 l-7 45 -52 -60z m82 -142 c25 -49 45
-93 45 -99 0 -6 -31 -10 -76 -10 l-77 0 6 86 c3 61 10 90 22 104 10 11 22 17
27 14 5 -3 29 -46 53 -95z"/>
<path d="M1310 1643 l-85 -43 55 1 c52 1 57 3 94 45 21 24 35 43 30 42 -5 -1
-47 -21 -94 -45z"/>
<path d="M1563 1648 c8 -18 45 -95 83 -170 l69 -138 49 0 49 0 -6 59 c-10 120
-89 233 -184 265 -70 24 -76 22 -60 -16z m111 -59 c34 -27 72 -93 84 -147 11
-46 0 -65 -23 -41 -15 15 -105 188 -105 201 0 14 16 9 44 -13z"/>
<path d="M1260 1304 c-12 -4 -14 -18 -12 -70 5 -85 24 -79 26 9 0 37 1 66 1
66 0 -1 -7 -3 -15 -5z"/>
<path d="M1325 1302 c-5 -4 -10 -34 -10 -67 l0 -60 35 4 c29 5 31 6 10 9 -25
3 -25 4 -20 62 6 60 4 66 -15 52z"/>
<path d="M1615 1263 c-3 -27 -7 -58 -9 -71 -2 -13 1 -21 8 -19 6 2 11 12 12
23 3 58 5 60 25 22 11 -21 21 -38 23 -38 7 0 47 73 42 77 -2 3 -11 -7 -19 -22
l-14 -27 -21 34 c-12 20 -22 40 -22 46 0 6 -4 13 -9 17 -6 3 -12 -16 -16 -42z"/>
<path d="M1733 1293 c-13 -25 -4 -125 10 -120 6 2 10 28 8 68 -3 72 -5 79 -18
52z"/>
<path d="M985 1240 c0 -58 1 -60 27 -60 36 0 61 26 48 50 -6 10 -9 29 -7 42 2
20 -3 23 -33 26 l-35 3 0 -61z m51 39 c3 -6 2 -15 -4 -21 -8 -8 -7 -15 3 -25
17 -17 9 -43 -14 -43 -13 0 -15 9 -13 50 4 48 13 62 28 39z"/>
<path d="M1098 1245 c4 -59 23 -82 59 -68 16 6 15 8 -7 13 -23 5 -25 11 -25
58 0 40 -4 52 -15 52 -12 0 -14 -11 -12 -55z"/>
<path d="M1178 1240 c3 -54 6 -60 25 -60 16 0 18 3 8 9 -9 6 -12 24 -10 60 3
40 1 51 -11 51 -12 0 -14 -12 -12 -60z"/>
<path d="M1410 1240 l0 -60 35 0 c43 0 75 29 75 68 0 39 -17 52 -67 52 l-43 0
0 -60z m78 38 c7 -7 12 -24 12 -38 0 -32 -17 -50 -47 -50 -21 0 -23 4 -23 50
0 46 2 50 23 50 13 0 28 -5 35 -12z"/>
<path d="M1811 1241 c-17 -36 -31 -66 -31 -69 0 -9 25 6 26 16 1 7 2 17 3 22
2 19 43 11 48 -10 3 -11 14 -20 25 -20 18 0 18 1 4 16 -9 8 -16 23 -16 32 -1
9 -7 31 -14 47 l-13 30 -32 -64z"/>
<path d="M1943 1257 c17 -23 39 -53 48 -66 8 -14 20 -21 27 -18 7 5 2 16 -14
34 -13 14 -24 31 -24 37 1 15 22 42 40 49 10 4 8 6 -7 6 -13 1 -24 -7 -28 -19
-3 -11 -11 -20 -17 -20 -5 0 -12 9 -15 20 -3 11 -14 20 -24 20 -16 0 -14 -6
14 -43z"/>
<path d="M974 1121 c-2 -2 -4 -25 -4 -51 0 -67 -27 -137 -59 -156 -24 -14 -11
-15 159 -10 102 2 192 7 202 11 15 6 34 52 25 61 -1 2 -54 6 -115 10 l-113 7
20 21 c19 20 51 85 51 103 0 8 -158 12 -166 4z m96 -60 c0 -11 -4 -23 -10 -26
-15 -10 -12 -46 7 -67 15 -17 14 -18 -24 -18 -22 0 -42 2 -45 5 -3 3 13 97 21
123 1 1 12 2 26 2 18 0 25 -5 25 -19z"/>
<path d="M1365 1115 c-2 -5 -6 -62 -10 -125 -13 -237 -44 -410 -82 -452 -18
-21 -18 -21 44 -15 46 4 80 15 132 43 39 21 71 41 71 45 0 4 -17 3 -37 -2 -21
-4 -54 -6 -73 -3 l-36 6 18 71 c18 70 40 229 53 373 l6 70 -42 0 c-23 -1 -43
-5 -44 -11z"/>
<path d="M1580 1123 c0 -1 43 -81 96 -178 118 -218 160 -305 177 -373 l13 -53
63 75 c44 50 74 99 96 152 38 91 97 198 166 301 27 40 49 74 49 77 0 3 -16 4
-35 2 -33 -3 -40 -10 -113 -127 -129 -204 -142 -224 -147 -221 -3 1 -44 79
-93 172 l-88 171 -92 2 c-51 1 -92 1 -92 0z m240 -195 c88 -170 104 -192 137
-183 13 3 23 3 23 0 0 -25 -73 -125 -91 -125 -4 0 -14 19 -24 43 -9 23 -59
121 -111 218 -52 97 -94 181 -94 188 0 8 14 11 41 9 l42 -3 77 -147z"/>
<path d="M1522 1037 c-20 -21 -30 -57 -17 -57 13 0 65 31 65 38 0 5 -6 16 -13
26 -12 16 -14 16 -35 -7z"/>
</g>
</svg>
